PathFileType	4	(X/Y/Z)	Walk2.trc
DataRate	CameraRate	NumFrames	NumMarkers	Units	OrigDataRate	OrigDataStartFrame	OrigNumFrames
200.000000	200.000000	8	61	mm	200.000000	317	450
Frame#	Times		LFHD		RFHD		CLAV		STRN		LASI		RASI		RACR1		RUA1		RWRU		RCAR		LACR1		LUA1		LFA1		LWRU		LCAR		RTH3		RTH2		RTB1		LTH1		LTH3		LTH2		LTH4		LLFC		LTB1		LTB3		LTB2		LTB4		LToe		RTB4		RWRR		LBHD		RLFC		RMFC		RTB3		RMT5		RToe		RFA1		LWRR		LElbow		RTH4		RMT1		RTB2		RMMAL		LMFC		LPSI		RTH1		RElbow		LElbowM		LMT5		RBHD		RBack		RPSI		RLMAL		RCAL		C7		T10		LMMAL		LMT1		RElbowM		LCAL		LLMAL
			X1	Y1	Z1	X2	Y2	Z2	X3	Y3	Z3	X4	Y4	Z4	X5	Y5	Z5	X6	Y6	Z6	X7	Y7	Z7	X8	Y8	Z8	X9	Y9	Z9	X10	Y10	Z10	X11	Y11	Z11	X12	Y12	Z12	X13	Y13	Z13	X14	Y14	Z14	X15	Y15	Z15	X16	Y16	Z16	X17	Y17	Z17	X18	Y18	Z18	X19	Y19	Z19	X20	Y20	Z20	X21	Y21	Z21	X22	Y22	Z22	X23	Y23	Z23	X24	Y24	Z24	X25	Y25	Z25	X26	Y26	Z26	X27	Y27	Z27	X28	Y28	Z28	X29	Y29	Z29	X30	Y30	Z30	X31	Y31	Z31	X32	Y32	Z32	X33	Y33	Z33	X34	Y34	Z34	X35	Y35	Z35	X36	Y36	Z36	X37	Y37	Z37	X38	Y38	Z38	X39	Y39	Z39	X40	Y40	Z40	X41	Y41	Z41	X42	Y42	Z42	X43	Y43	Z43	X44	Y44	Z44	X45	Y45	Z45	X46	Y46	Z46	X47	Y47	Z47	X48	Y48	Z48	X49	Y49	Z49	X50	Y50	Z50	X51	Y51	Z51	X52	Y52	Z52	X53	Y53	Z53	X54	Y54	Z54	X55	Y55	Z55	X56	Y56	Z56	X57	Y57	Z57	X58	Y58	Z58	X59	Y59	Z59	X60	Y60	Z60	X61	Y61	Z61

317	1.585	650.55	1578.9	-69.283	651.59	1581.6	30.075	589.08	1319.8	-15.561	610.96	1187.1	-14.18	557.56	910.3	-117.8	581.98	931.07	129.02	518.98	1360.2	151.81	515.09	1192.5	210.8	610.46	795.57	243.35	604.48	728.08	292.61	505.13	1372.8	-163.05	482.96	1200.5	-224.15	496.09	908.7	-266.73	566.9	805.76	-248.75	548.64	736.05	-279.77	530.75	591.16	166.89	586.25	680.94	167.04	544.75	334.05	94.518	530.9	740.95	-175.22	576.91	576.99	-151.72	608.3	677.57	-149.46	553.17	658.13	-164.66	596.84	446.39	-135.44	572.43	344.96	-70.215	441.39	236.13	-54.817	488.65	303.99	-120.56	504.06	291.73	-62.929	446.98	43.104	-58.755	527.58	249.15	83.335	556.27	786.73	284.93	497.67	1541.6	-89.875	534.43	442.82	131.88	498.11	440.24	7.6909	507.96	166.32	69.095	538.86	23.996	91.925	626.12	26.034	36.083	552.4	906.96	276.42	497.86	793.59	-251.12	456.08	1044	-244.72	530.84	672.12	187.23	571.16	32.928	4.564	483.94	253.06	126.48	449.82	87.627	1.0643	596.48	439.01	3.2542	390.74	966.6	-30.197	532.31	756.94	211.32	501.64	1028.6	251.47	443.56	1025.9	-172.13	373.98	90.87	-103.15	503.04	1551.2	55.607	401.17	1298.5	65.13	403.2	970.18	69.39	437.87	64.651	81.152	384.42	42.996	37.937	476.93	1423.7	-13.678	400.4	1212.5	0.50946	349.18	197.16	-14.68	406.63	77.41	-30.364	470.62	1021.2	179.28	265.24	206.9	-46.485	323.46	194.24	-93.923
318	1.59	658.38	1579.3	-69.397	659.4	1582	29.96	596.59	1320.5	-15.465	618.57	1188	-14.055	565.43	911.2	-117.81	589.35	931.18	128.98	526.52	1361.1	151.86	523.58	1193.4	210.79	623.13	797.52	241.88	618.19	729.83	290.97	512.34	1373.1	-163.02	488.86	1200.9	-223.68	497.62	908.56	-265.56	566.25	803.99	-248.15	546.12	734.62	-278.88	535.42	591.29	166.5	591.78	680.49	165.34	545.67	334.22	94.354	539.66	742.09	-175.67	587.87	578.77	-151.98	618.03	679.76	-150.13	563.13	659.55	-165.03	609.83	448.36	-135.41	587.85	346.36	-70.221	459.75	234.13	-54.728	505.12	303.22	-120.52	520.91	291.34	-62.887	471.15	41.946	-59.332	528.29	249.38	83.193	569.16	787.87	283.56	505.42	1542.3	-89.99	536.08	442.92	131.68	498.93	440.38	7.4313	508.45	166.61	69.003	538.95	24.039	91.742	626.39	25.885	36.198	563.75	908.06	275.57	496.92	793.37	-249.94	460.83	1044.4	-243.26	536.82	672.12	186.53	571.32	32.881	4.4426	484.62	253.43	126.32	450.24	88.078	0.88657	609.85	441.26	3.1307	398.48	967.31	-30.377	539.6	757.09	210.48	511.48	1029.2	251.22	448.54	1026.7	-170.59	396.47	87.562	-103.48	510.77	1552	55.496	408.76	1299.1	65.373	410.75	970.79	69.264	438.03	65.205	80.895	384.64	43.73	37.676	484.43	1424.3	-13.697	408.09	1212.9	0.81804	368.75	192.62	-14.432	429.79	74.837	-30.799	480.13	1021.9	179.14	284.32	199.9	-46.012	342.9	189.09	-93.74
319	1.595	666.2	1579.6	-69.526	667.18	1582.4	29.829	604.12	1321.2	-15.354	626.19	1188.7	-13.861	573.31	912.01	-117.83	596.69	931.25	128.96	534.05	1362	151.91	532.06	1194.2	210.79	635.8	799.46	240.38	631.89	731.59	289.29	519.57	1373.4	-162.97	494.83	1201.2	-223.19	499.17	908.49	-264.39	565.57	802.34	-247.54	543.58	733.36	-277.99	540.05	591.42	166.1	597.25	680.01	163.64	546.58	334.43	94.235	548.38	743.15	-176.14	598.71	580.47	-152.24	627.66	681.86	-150.79	573	660.89	-165.41	622.62	450.25	-135.37	603.15	347.7	-70.213	478.22	232.02	-54.667	521.61	302.31	-120.51	537.76	290.88	-62.852	495.53	40.766	-59.945	529	249.65	83.087	582.05	789.01	282.17	513.17	1542.8	-90.123	537.7	443.06	131.52	499.77	440.59	7.201	508.95	166.94	68.936	539.02	24.082	91.553	626.63	25.753	36.312	575.08	909.13	274.71	496.01	793.26	-248.74	465.6	1044.8	-241.8	542.75	672.1	185.82	571.49	32.836	4.3274	485.29	253.86	126.17	450.68	88.575	0.70694	622.93	443.47	2.9795	406.23	967.96	-30.597	546.86	757.19	209.65	521.28	1029.7	250.98	453.55	1027.5	-169.08	419.23	84.142	-103.85	518.48	1552.7	55.363	416.35	1299.7	65.605	418.27	971.33	69.099	438.18	65.801	80.629	384.86	44.519	37.392	491.95	1424.8	-13.705	415.8	1213.3	1.1019	388.55	187.88	-14.254	453.22	72.225	-31.267	489.61	1022.6	178.99	303.72	192.62	-45.637	362.61	183.72	-93.629
320	1.6	674	1579.8	-69.67	674.94	1582.8	29.683	611.65	1321.7	-15.23	633.82	1189.4	-13.605	581.2	912.71	-117.85	603.99	931.28	128.95	541.58	1362.8	151.98	540.52	1194.9	210.81	648.44	801.41	238.86	645.58	733.34	287.56	526.83	1373.7	-162.9	500.89	1201.4	-222.67	500.75	908.49	-263.2	564.87	800.82	-246.94	541.04	732.27	-277.1	544.6	591.54	165.68	602.66	679.5	161.97	547.51	334.68	94.164	557.08	744.13	-176.6	609.43	582.09	-152.48	637.2	683.84	-151.44	582.78	662.16	-165.8	635.23	452.05	-135.32	618.32	349	-70.197	496.82	229.8	-54.64	538.14	301.28	-120.52	554.61	290.35	-62.826	520.12	39.597	-60.587	529.72	249.96	83.02	594.95	790.13	280.76	520.91	1543.3	-90.274	539.31	443.21	131.37	500.63	440.87	7.0042	509.46	167.31	68.895	539.09	24.125	91.357	626.86	25.637	36.425	586.39	910.15	273.86	495.13	793.27	-247.51	470.39	1045.2	-240.34	548.62	672.07	185.12	571.66	32.794	4.2195	485.94	254.32	126.03	451.15	89.116	0.526	635.74	445.61	2.8012	413.96	968.54	-30.859	554.06	757.26	208.85	531.05	1030.2	250.74	458.59	1028.3	-167.6	442.27	80.64	-104.25	526.18	1553.4	55.209	423.94	1300.1	65.827	425.77	971.8	68.893	438.34	66.44	80.354	385.09	45.363	37.084	499.49	1425.2	-13.701	423.5	1213.7	1.3589	408.59	182.97	-14.149	476.88	69.606	-31.764	499.07	1023.1	178.82	323.45	185.1	-45.364	382.61	178.14	-93.591
321	1.605	681.79	1579.9	-69.826	682.68	1583.1	29.524	619.21	1322.2	-15.096	641.46	1189.9	-13.294	589.1	913.31	-117.88	611.25	931.26	128.96	549.13	1363.4	152.06	548.98	1195.5	210.83	661.07	803.34	237.33	659.27	735.09	285.8	534.13	1373.8	-162.82	507.04	1201.6	-222.13	502.37	908.56	-262	564.16	799.42	-246.34	538.51	731.36	-276.21	549.08	591.67	165.25	607.98	678.96	160.35	548.47	334.96	94.141	565.75	745.01	-177.07	620.02	583.61	-152.7	646.66	685.69	-152.08	592.47	663.33	-166.17	647.63	453.74	-135.26	633.36	350.26	-70.177	515.53	227.51	-54.65	554.68	300.14	-120.56	571.44	289.75	-62.817	544.91	38.473	-61.254	530.46	250.29	82.993	607.85	791.23	279.33	528.66	1543.6	-90.441	540.92	443.4	131.26	501.53	441.23	6.8428	509.97	167.72	68.881	539.14	24.166	91.158	627.08	25.535	36.537	597.68	911.13	273	494.3	793.4	-246.26	475.21	1045.6	-238.89	554.38	672.06	184.43	571.82	32.756	4.1199	486.58	254.83	125.91	451.64	89.7	0.34393	648.25	447.66	2.5974	421.7	969.04	-31.164	561.16	757.29	208.09	540.78	1030.7	250.51	463.67	1029	-166.13	465.59	77.091	-104.69	533.86	1554	55.036	431.55	1300.5	66.036	433.24	972.21	68.647	438.48	67.121	80.072	385.33	46.26	36.753	507.04	1425.6	-13.683	431.22	1213.9	1.5869	428.87	177.94	-14.121	500.79	67.014	-32.288	508.49	1023.6	178.64	343.52	177.38	-45.193	402.89	172.39	-93.625
322	1.61	689.57	1580	-69.994	690.4	1583.4	29.352	626.78	1322.6	-14.952	649.11	1190.4	-12.934	597.01	913.81	-117.91	618.47	931.2	128.98	556.69	1364	152.15	557.42	1196.1	210.87	673.66	805.25	235.77	672.95	736.83	284	541.46	1373.9	-162.72	513.26	1201.7	-221.57	504.04	908.69	-260.8	563.46	798.14	-245.74	535.99	730.62	-275.33	553.47	591.79	164.83	613.21	678.39	158.8	549.45	335.27	94.165	574.4	745.8	-177.54	630.48	585.03	-152.9	656.02	687.42	-152.7	602.06	664.41	-166.53	659.83	455.32	-135.2	648.26	351.46	-70.162	534.35	225.16	-54.7	571.25	298.9	-120.63	588.27	289.1	-62.828	569.9	37.431	-61.944	531.22	250.66	83.005	620.74	792.31	277.89	536.42	1543.9	-90.623	542.55	443.61	131.17	502.5	441.68	6.7165	510.5	168.16	68.893	539.17	24.206	90.957	627.27	25.445	36.646	608.95	912.07	272.14	493.51	793.63	-244.98	480.05	1046	-237.46	560.03	672.06	183.77	571.98	32.723	4.0298	487.22	255.37	125.8	452.15	90.326	0.16063	660.47	449.61	2.3702	429.43	969.47	-31.514	568.13	757.28	207.37	550.47	1031	250.29	468.79	1029.7	-164.69	489.18	73.531	-105.17	541.53	1554.5	54.846	439.16	1300.8	66.234	440.7	972.54	68.356	438.63	67.843	79.785	385.57	47.21	36.401	514.63	1425.9	-13.65	438.94	1214.1	1.7842	449.39	172.8	-14.171	524.94	64.482	-32.84	517.89	1023.9	178.46	363.94	169.49	-45.125	423.47	166.51	-93.729
323	1.615	697.33	1580.1	-70.172	698.11	1583.7	29.168	634.37	1322.9	-14.801	656.77	1190.8	-12.535	604.94	914.21	-117.94	625.66	931.09	129.01	564.26	1364.5	152.25	565.86	1196.5	210.91	686.23	807.16	234.19	686.6	738.57	282.17	548.82	1374	-162.62	519.56	1201.8	-221	505.76	908.89	-259.6	562.77	796.99	-245.14	533.51	730.05	-274.44	557.77	591.9	164.41	618.35	677.81	157.35	550.48	335.62	94.23	583.03	746.5	-178.01	640.78	586.35	-153.07	665.31	689	-153.31	611.55	665.39	-166.87	671.81	456.79	-135.13	663.02	352.61	-70.156	553.28	222.78	-54.795	587.83	297.58	-120.74	605.08	288.41	-62.866	595.06	36.504	-62.657	532.01	251.05	83.053	633.64	793.36	276.43	544.17	1544	-90.818	544.2	443.85	131.1	503.55	442.23	6.6227	511.05	168.64	68.928	539.2	24.244	90.756	627.45	25.367	36.753	620.21	912.95	271.29	492.79	793.98	-243.69	484.92	1046.4	-236.05	565.55	672.08	183.15	572.14	32.695	3.9499	487.87	255.95	125.72	452.67	90.992	-0.024064	672.41	451.43	2.1224	437.16	969.82	-31.908	574.94	757.23	206.71	560.12	1031.3	250.08	473.97	1030.4	-163.27	513.05	69.997	-105.68	549.2	1555	54.643	446.79	1301.1	66.421	448.13	972.8	68.021	438.78	68.604	79.496	385.81	48.211	36.03	522.23	1426.1	-13.603	446.66	1214.2	1.9494	470.16	167.6	-14.299	549.31	62.045	-33.422	527.25	1024.2	178.29	384.71	161.47	-45.156	444.34	160.53	-93.9
324	1.62	705.09	1580.1	-70.361	705.81	1583.9	28.973	641.98	1323.1	-14.645	664.45	1191	-12.103	612.89	914.5	-117.98	632.82	930.94	129.05	571.86	1364.9	152.35	574.3	1196.9	210.95	698.76	809.04	232.6	700.24	740.3	280.31	556.22	1374	-162.5	525.94	1201.8	-220.42	507.53	909.14	-258.39	562.12	795.96	-244.54	531.08	729.64	-273.56	561.99	592.02	164.01	623.4	677.21	156.02	551.55	335.98	94.33	591.63	747.11	-178.47	650.94	587.54	-153.2	674.5	690.44	-153.89	620.94	666.26	-167.19	683.57	458.13	-135.07	677.64	353.71	-70.164	572.31	220.38	-54.937	604.42	296.21	-120.88	621.87	287.69	-62.934	620.39	35.73	-63.394	532.83	251.47	83.134	646.54	794.39	274.97	551.93	1544	-91.023	545.91	444.12	131.06	504.7	442.87	6.5567	511.62	169.14	68.983	539.2	24.279	90.557	627.62	25.298	36.856	631.44	913.78	270.43	492.14	794.43	-242.37	489.82	1046.8	-234.66	570.93	672.13	182.6	572.31	32.673	3.8809	488.53	256.57	125.65	453.22	91.693	-0.21031	684.05	453.11	1.8573	444.88	970.08	-32.347	581.57	757.15	206.11	569.73	1031.5	249.88	479.19	1031	-161.88	537.17	66.528	-106.23	556.86	1555.3	54.429	454.43	1301.2	66.596	455.55	972.99	67.639	438.93	69.404	79.207	386.06	49.26	35.647	529.87	1426.2	-13.541	454.39	1214.3	2.0821	491.17	162.37	-14.502	573.89	59.734	-34.036	536.59	1024.3	178.14	405.85	153.36	-45.284	465.51	154.5	-94.134
